<mxfile host="app.diagrams.net" modified="2022-04-30T15:36:23.235Z" agent="5.0 (Windows NT 10.0; Win64; x64) AppleWebKit/537.36 (KHTML, like Gecko) Chrome/100.0.4896.127 Safari/537.36" etag="edd9RraCCS-fYIuzVViG" version="17.5.0" type="github">
  <diagram id="WDfgBV_rDb0RWKjudLIP" name="Page-1">
    <mxGraphModel dx="1422" dy="794" grid="1" gridSize="10" guides="1" tooltips="1" connect="1" arrows="1" fold="1" page="1" pageScale="1" pageWidth="827" pageHeight="1169" math="0" shadow="0">
      <root>
        <mxCell id="0" />
        <mxCell id="1" parent="0" />
        <mxCell id="Na0yIMmdnTIZNlcBVKza-1" value="" style="edgeStyle=orthogonalEdgeStyle;rounded=0;orthogonalLoop=1;jettySize=auto;html=1;" edge="1" parent="1" target="Na0yIMmdnTIZNlcBVKza-8">
          <mxGeometry relative="1" as="geometry">
            <mxPoint x="350" y="260" as="sourcePoint" />
          </mxGeometry>
        </mxCell>
        <mxCell id="Na0yIMmdnTIZNlcBVKza-2" value="" style="edgeStyle=orthogonalEdgeStyle;rounded=0;orthogonalLoop=1;jettySize=auto;html=1;" edge="1" parent="1" target="Na0yIMmdnTIZNlcBVKza-9">
          <mxGeometry relative="1" as="geometry">
            <mxPoint x="320" y="310" as="sourcePoint" />
            <Array as="points">
              <mxPoint x="220" y="330" />
              <mxPoint x="220" y="330" />
            </Array>
          </mxGeometry>
        </mxCell>
        <mxCell id="Na0yIMmdnTIZNlcBVKza-3" value="" style="edgeStyle=orthogonalEdgeStyle;rounded=0;orthogonalLoop=1;jettySize=auto;html=1;" edge="1" parent="1" target="Na0yIMmdnTIZNlcBVKza-10">
          <mxGeometry relative="1" as="geometry">
            <mxPoint x="350" y="380" as="sourcePoint" />
          </mxGeometry>
        </mxCell>
        <mxCell id="Na0yIMmdnTIZNlcBVKza-4" value="" style="edgeStyle=orthogonalEdgeStyle;rounded=0;orthogonalLoop=1;jettySize=auto;html=1;" edge="1" parent="1" source="Na0yIMmdnTIZNlcBVKza-7" target="Na0yIMmdnTIZNlcBVKza-11">
          <mxGeometry relative="1" as="geometry">
            <Array as="points">
              <mxPoint x="570" y="290" />
            </Array>
          </mxGeometry>
        </mxCell>
        <mxCell id="Na0yIMmdnTIZNlcBVKza-5" value="" style="edgeStyle=orthogonalEdgeStyle;rounded=0;orthogonalLoop=1;jettySize=auto;html=1;" edge="1" parent="1" source="Na0yIMmdnTIZNlcBVKza-7" target="Na0yIMmdnTIZNlcBVKza-12">
          <mxGeometry relative="1" as="geometry">
            <Array as="points">
              <mxPoint x="570" y="310" />
            </Array>
          </mxGeometry>
        </mxCell>
        <mxCell id="Na0yIMmdnTIZNlcBVKza-6" value="" style="edgeStyle=orthogonalEdgeStyle;rounded=0;orthogonalLoop=1;jettySize=auto;html=1;" edge="1" parent="1" source="Na0yIMmdnTIZNlcBVKza-7" target="Na0yIMmdnTIZNlcBVKza-13">
          <mxGeometry relative="1" as="geometry">
            <Array as="points">
              <mxPoint x="210" y="280" />
            </Array>
          </mxGeometry>
        </mxCell>
        <mxCell id="Na0yIMmdnTIZNlcBVKza-7" value="Staff" style="shape=umlActor;verticalLabelPosition=bottom;verticalAlign=top;html=1;outlineConnect=0;align=center;" vertex="1" parent="1">
          <mxGeometry x="330" y="270" width="40" height="80" as="geometry" />
        </mxCell>
        <mxCell id="Na0yIMmdnTIZNlcBVKza-8" value="Find Staff" style="rounded=1;whiteSpace=wrap;html=1;verticalAlign=top;" vertex="1" parent="1">
          <mxGeometry x="330" y="110" width="120" height="30" as="geometry" />
        </mxCell>
        <mxCell id="Na0yIMmdnTIZNlcBVKza-9" value="List Staff" style="rounded=1;whiteSpace=wrap;html=1;verticalAlign=top;" vertex="1" parent="1">
          <mxGeometry x="160" y="380" width="120" height="30" as="geometry" />
        </mxCell>
        <mxCell id="Na0yIMmdnTIZNlcBVKza-10" value="Add a book record" style="rounded=1;whiteSpace=wrap;html=1;verticalAlign=top;" vertex="1" parent="1">
          <mxGeometry x="290" y="440" width="120" height="30" as="geometry" />
        </mxCell>
        <mxCell id="Na0yIMmdnTIZNlcBVKza-11" value="Delete a Staff record" style="rounded=1;whiteSpace=wrap;html=1;verticalAlign=top;" vertex="1" parent="1">
          <mxGeometry x="520" y="190" width="120" height="30" as="geometry" />
        </mxCell>
        <mxCell id="Na0yIMmdnTIZNlcBVKza-12" value="Edit a Staff record" style="rounded=1;whiteSpace=wrap;html=1;verticalAlign=top;" vertex="1" parent="1">
          <mxGeometry x="520" y="420" width="120" height="30" as="geometry" />
        </mxCell>
        <mxCell id="Na0yIMmdnTIZNlcBVKza-13" value="Filter Staff records" style="rounded=1;whiteSpace=wrap;html=1;verticalAlign=top;" vertex="1" parent="1">
          <mxGeometry x="150" y="150" width="120" height="30" as="geometry" />
        </mxCell>
        <mxCell id="Na0yIMmdnTIZNlcBVKza-14" value="includes" style="endArrow=classic;html=1;rounded=0;exitX=0.873;exitY=1.033;exitDx=0;exitDy=0;exitPerimeter=0;" edge="1" parent="1" source="Na0yIMmdnTIZNlcBVKza-10" target="Na0yIMmdnTIZNlcBVKza-15">
          <mxGeometry relative="1" as="geometry">
            <mxPoint x="390" y="520" as="sourcePoint" />
            <mxPoint x="450" y="550" as="targetPoint" />
          </mxGeometry>
        </mxCell>
        <mxCell id="Na0yIMmdnTIZNlcBVKza-15" value="Validation of the record" style="rounded=1;whiteSpace=wrap;html=1;" vertex="1" parent="1">
          <mxGeometry x="390" y="520" width="120" height="40" as="geometry" />
        </mxCell>
        <mxCell id="Na0yIMmdnTIZNlcBVKza-16" value="includes" style="endArrow=classic;html=1;rounded=0;entryX=1;entryY=0;entryDx=0;entryDy=0;exitX=0.25;exitY=1;exitDx=0;exitDy=0;" edge="1" parent="1">
          <mxGeometry relative="1" as="geometry">
            <mxPoint x="550" y="450" as="sourcePoint" />
            <mxPoint x="510" y="520" as="targetPoint" />
          </mxGeometry>
        </mxCell>
      </root>
    </mxGraphModel>
  </diagram>
</mxfile>
